<svg width="25" height="25" viewBox="0 0 25 25" fill="none" xmlns="http://www.w3.org/2000/svg">
<path d="M13.4286 12.5424L17.512 8.42578C17.762 8.17578 17.762 7.80078 17.512 7.55078C17.262 7.30078 16.887 7.30078 16.637 7.55078L12.5453 11.6674L8.45365 7.59245C8.19531 7.34245 7.82031 7.34245 7.57031 7.59245C7.32031 7.85078 7.32031 8.22578 7.57031 8.47578L11.6703 12.5508L7.63698 16.6091C7.39531 16.8674 7.38698 17.2424 7.63698 17.4924C7.72865 17.6091 7.88698 17.6674 8.07031 17.6674C8.22031 17.6674 8.37031 17.6091 8.51198 17.5008L12.5536 13.4258L16.562 17.4258C16.6536 17.5424 16.8036 17.6008 16.987 17.6008C17.1703 17.6008 17.3203 17.5424 17.437 17.4258C17.687 17.1674 17.687 16.7924 17.437 16.5424L13.4286 12.5424Z" fill="#09599B"/>
<path d="M12.5099 24.9339C5.67656 24.9339 0.101562 19.3755 0.101562 12.5255C0.101562 5.67552 5.6599 0.117188 12.5099 0.117188C19.3599 0.117188 24.9182 5.67552 24.9182 12.5255C24.9182 19.3755 19.3432 24.9339 12.5099 24.9339ZM12.502 1.12549C6.36862 1.12549 1.07171 6.38386 1.07171 12.5255C1.07171 18.6672 6.36862 24.0005 12.502 24.0005C18.6353 24.0005 24.002 18.6422 24.002 12.5005C24.002 6.35882 18.6436 1.12549 12.502 1.12549Z" fill="#09599B"/>
</svg>
