<svg width="22" height="23" viewBox="0 0 22 23" fill="none" xmlns="http://www.w3.org/2000/svg">
<path d="M15.625 14.5H14.6375L14.2875 14.1625C15.5125 12.7375 16.25 10.8875 16.25 8.875C16.25 4.3875 12.6125 0.75 8.125 0.75C3.6375 0.75 0 4.3875 0 8.875C0 13.3625 3.6375 17 8.125 17C10.1375 17 11.9875 16.2625 13.4125 15.0375L13.75 15.3875V16.375L20 22.6125L21.8625 20.75L15.625 14.5ZM8.125 14.5C5.0125 14.5 2.5 11.9875 2.5 8.875C2.5 5.7625 5.0125 3.25 8.125 3.25C11.2375 3.25 13.75 5.7625 13.75 8.875C13.75 11.9875 11.2375 14.5 8.125 14.5Z" fill="#09599B"/>
</svg>
