<svg width="25" height="25" viewBox="0 0 25 25" fill="none" xmlns="http://www.w3.org/2000/svg">
<g clip-path="url(#clip0_39331_201725)">
<path d="M12.3984 25C5.51438 25 -0.101562 19.4022 -0.101562 12.5C-0.101562 5.59783 5.49626 0 12.3984 0C19.2825 0 24.8984 5.59783 24.8984 12.5C24.8984 19.4022 19.2825 25 12.3984 25ZM12.3984 1.10507C6.11221 1.10507 0.985394 6.21377 0.985394 12.5181C0.985394 18.8225 6.09409 23.9312 12.3984 23.9312C18.7028 23.9312 23.8115 18.8225 23.8115 12.5181C23.8115 6.21377 18.6847 1.10507 12.3984 1.10507Z" fill="#09599B"/>
<path d="M9.49792 17.6849C9.41458 17.6849 9.34792 17.6682 9.26458 17.6182C9.11458 17.5349 9.03125 17.3849 9.03125 17.2182L9.08125 8.00156C9.08125 7.8349 9.16458 7.6849 9.31458 7.60156C9.46458 7.51823 9.63125 7.51823 9.78125 7.60156L17.3979 12.2016C17.5312 12.2849 17.6146 12.4349 17.6146 12.6016C17.6146 12.7682 17.5312 12.9182 17.3979 13.0016L9.73125 17.6182C9.66458 17.6682 9.58125 17.6849 9.49792 17.6849ZM9.99792 8.81823L9.96458 16.4182L16.2812 12.6182L9.99792 8.81823Z" fill="#09599B"/>
</g>
<defs>
<clipPath id="clip0_39331_201725">
<rect width="25" height="25" fill="white"/>
</clipPath>
</defs>
</svg>
