<svg width="25" height="25" viewBox="0 0 25 25" fill="none" xmlns="http://www.w3.org/2000/svg">
<path d="M10.3573 17.5581L7.14062 14.3414C6.89063 14.0914 6.89063 13.6914 7.14062 13.4581C7.39062 13.2081 7.79063 13.2081 8.02396 13.4581L10.3573 15.7914L17.3323 8.81641C17.5823 8.56641 17.9823 8.56641 18.2156 8.81641C18.4656 9.06641 18.4656 9.46641 18.2156 9.69974L10.3573 17.5581Z" fill="#09599B"/>
<path d="M12.5099 24.9339C5.67656 24.9339 0.101562 19.3755 0.101562 12.5255C0.101562 5.67552 5.6599 0.117188 12.5099 0.117188C19.3599 0.117188 24.9182 5.67552 24.9182 12.5255C24.9182 19.3755 19.3432 24.9339 12.5099 24.9339ZM12.5099 1.00049C6.37656 1.00049 1.00195 6.35882 1.00195 12.5005C1.00195 18.6422 6.37656 24.0005 12.5099 24.0005C18.6432 24.0005 23.933 18.6672 23.933 12.5255C23.933 6.38386 18.6516 1.00049 12.5099 1.00049Z" fill="#09599B"/>
</svg>
