<svg width="25" height="25" viewBox="0 0 25 25" fill="none" xmlns="http://www.w3.org/2000/svg">
<g clip-path="url(#clip0_39331_201719)">
<path d="M12.5 25C5.61594 25 0 19.4582 0 12.625C0 5.79185 5.59783 0.25 12.5 0.25C19.3841 0.25 25 5.79185 25 12.625C25 19.4582 19.3841 25 12.5 25ZM12.5 1.34402C6.21377 1.34402 1.08696 6.40163 1.08696 12.6429C1.08696 18.8842 6.19565 23.9418 12.5 23.9418C18.8043 23.9418 23.913 18.8842 23.913 12.6429C23.913 6.40163 18.7862 1.34402 12.5 1.34402Z" fill="#09599B"/>
<path d="M12.0966 15.3995C11.8633 15.3995 11.6799 15.2161 11.6799 14.9828V14.8661C11.6799 14.2828 11.7633 13.8328 11.9299 13.4995C12.1133 13.1495 12.4966 12.7161 13.0799 12.1995C13.5133 11.8161 13.7966 11.5328 13.9299 11.3495C14.2133 10.9661 14.3466 10.5661 14.3466 10.1328C14.3466 9.63281 14.1633 9.23281 13.8133 8.89948C13.4466 8.58281 12.9966 8.41615 12.4299 8.41615C11.6966 8.41615 11.1133 8.69948 10.7133 9.24948C10.5633 9.44948 10.4133 9.76615 10.2966 10.1661C10.2299 10.3661 10.0299 10.4995 9.82992 10.4661L9.49658 10.4161C9.26325 10.3828 9.09658 10.1328 9.16325 9.89948C9.32992 9.29948 9.56325 8.83281 9.86325 8.46615C10.4633 7.74948 11.3466 7.38281 12.4799 7.38281C13.5633 7.38281 14.3799 7.69948 14.9133 8.31615C15.3799 8.83281 15.5966 9.46615 15.5966 10.1995C15.5966 10.9495 15.3299 11.5995 14.7799 12.1828C14.6133 12.3661 14.2133 12.7161 13.5799 13.2661C13.2466 13.5495 13.0133 13.8161 12.8799 14.0828C12.7299 14.3495 12.6633 14.6495 12.6633 14.9661C12.6633 15.1995 12.4799 15.3828 12.2466 15.3828H12.0966V15.3995ZM11.5799 17.5328V17.1495C11.5799 16.9328 11.7633 16.7495 11.9799 16.7495H12.3633C12.5799 16.7495 12.7633 16.9328 12.7633 17.1495V17.5328C12.7633 17.7495 12.5799 17.9328 12.3633 17.9328H11.9799C11.7633 17.9328 11.5799 17.7495 11.5799 17.5328Z" fill="#09599B"/>
</g>
<defs>
<clipPath id="clip0_39331_201719">
<rect width="25" height="25" fill="white"/>
</clipPath>
</defs>
</svg>
